<svg version="1.1" id="Layer_1" xmlns="http://www.w3.org/2000/svg" xmlns:xlink="http://www.w3.org/1999/xlink" x="0px" y="0px"
	 width="100%" viewBox="0 0 980 980" enable-background="new 0 0 980 980" xml:space="preserve">
<path fill="#FFFFFF" opacity="1.000000" stroke="none" 
	d="
M617.000000,981.000000 
	C411.333344,981.000000 206.166672,981.000000 1.000000,981.000000 
	C1.000000,654.333313 1.000000,327.666656 1.000000,1.000000 
	C327.666656,1.000000 654.333313,1.000000 981.000000,1.000000 
	C981.000000,327.666656 981.000000,654.333313 981.000000,981.000000 
	C859.833313,981.000000 738.666687,981.000000 617.000000,981.000000 
M370.500000,785.051697 
	C456.655792,785.051880 542.811829,785.155090 628.967224,784.962830 
	C645.609070,784.925659 662.289001,784.257141 678.881287,782.973938 
	C727.916077,779.181458 768.329712,744.428223 780.046875,696.408020 
	C784.747253,677.144592 784.916321,657.426880 784.948486,637.786133 
	C785.108398,540.131897 785.133362,442.477112 784.961182,344.822968 
	C784.935364,330.182495 784.128662,315.497711 782.802490,300.913513 
	C778.146362,249.709244 737.385864,206.807159 686.363770,200.052551 
	C669.742310,197.852112 652.819580,197.166656 636.030762,197.117416 
	C540.210083,196.836411 444.388031,196.861618 348.566925,197.036026 
	C332.926788,197.064484 317.244965,197.835159 301.658356,199.157806 
	C255.540726,203.071274 216.258286,235.878708 203.375595,280.311615 
	C197.536789,300.449921 197.168823,321.129028 197.109711,341.742218 
	C196.839233,436.063171 196.855606,530.385437 197.032501,624.706726 
	C197.066513,642.848145 197.803726,661.020142 199.044388,679.121277 
	C202.580826,730.717468 243.843033,775.558594 295.186798,781.733093 
	C319.735870,784.685303 344.715424,784.057861 370.500000,785.051697 
z"/>
<path fill="#0366C7" opacity="1.000000" stroke="none" 
	d="
M370.000000,785.051697 
	C344.715424,784.057861 319.735870,784.685303 295.186798,781.733093 
	C243.843033,775.558594 202.580826,730.717468 199.044388,679.121277 
	C197.803726,661.020142 197.066513,642.848145 197.032501,624.706726 
	C196.855606,530.385437 196.839233,436.063171 197.109711,341.742218 
	C197.168823,321.129028 197.536789,300.449921 203.375595,280.311615 
	C216.258286,235.878708 255.540726,203.071274 301.658356,199.157806 
	C317.244965,197.835159 332.926788,197.064484 348.566925,197.036026 
	C444.388031,196.861618 540.210083,196.836411 636.030762,197.117416 
	C652.819580,197.166656 669.742310,197.852112 686.363770,200.052551 
	C737.385864,206.807159 778.146362,249.709244 782.802490,300.913513 
	C784.128662,315.497711 784.935364,330.182495 784.961182,344.822968 
	C785.133362,442.477112 785.108398,540.131897 784.948486,637.786133 
	C784.916321,657.426880 784.747253,677.144592 780.046875,696.408020 
	C768.329712,744.428223 727.916077,779.181458 678.881287,782.973938 
	C662.289001,784.257141 645.609070,784.925659 628.967224,784.962830 
	C542.811829,785.155090 456.655792,785.051880 370.000000,785.051697 
M643.549072,453.836426 
	C643.254089,453.782471 642.959106,453.728546 642.513428,453.564392 
	C642.513428,453.564392 642.389832,453.424377 642.527039,452.820709 
	C642.029053,452.531891 641.531128,452.243073 640.771301,451.834595 
	C640.771301,451.834595 640.615784,451.592346 640.756409,450.844208 
	C639.375183,450.042755 637.994019,449.241302 636.596008,448.359009 
	C636.596008,448.359009 636.514526,448.372375 636.720581,447.638489 
	C635.322693,446.869293 633.924805,446.100067 632.212891,445.242645 
	C632.212891,445.242645 631.989441,445.005127 631.926514,444.306641 
	C629.150696,442.711426 626.374878,441.116180 623.591187,439.429077 
	C623.591187,439.429077 623.504822,439.461517 623.491150,438.766663 
	C621.575806,437.981628 619.660461,437.196594 617.753296,436.304474 
	C617.753296,436.304474 617.668579,436.370422 617.518372,435.671875 
	C615.203979,434.895935 612.889648,434.120026 609.832703,433.219574 
	C566.640442,420.608398 530.307251,431.643677 500.054199,465.545410 
	C500.054199,454.379181 500.054199,443.797821 500.054199,432.870667 
	C477.613831,432.870667 455.552643,432.870667 433.326416,432.870667 
	C433.326416,511.262787 433.326416,589.469421 433.326416,667.802246 
	C456.993500,667.802246 480.374115,667.802246 504.170441,667.802246 
	C504.170441,664.155823 504.170593,660.854187 504.170410,657.552551 
	C504.168365,619.737000 504.113525,581.921265 504.197540,544.105896 
	C504.221649,533.262573 506.624298,522.995239 513.591187,513.710938 
	C516.018555,510.744934 518.445862,507.778931 520.908752,504.903473 
	C520.908752,504.903473 520.811646,504.898712 521.355652,504.791901 
	C521.562744,504.500641 521.769897,504.209381 521.985779,503.990570 
	C521.985779,503.990570 521.922729,503.953857 522.696350,504.009064 
	C526.104248,502.804474 529.630493,501.856598 532.899231,500.350067 
	C545.858154,494.377197 558.716736,493.762024 571.728638,500.220734 
	C573.684021,501.191284 576.129211,501.174866 578.187927,501.794464 
	C578.187927,501.794464 578.286499,501.575287 578.355774,502.249023 
	C578.948181,502.468018 579.540588,502.687012 580.036255,502.953979 
	C580.036255,502.953979 580.086670,502.858459 580.053711,503.571442 
	C582.853760,506.248108 585.653809,508.924744 587.989685,511.897064 
	C588.147583,511.804321 588.305542,511.711548 588.183105,512.396423 
	C588.293884,516.139709 589.570251,519.209473 593.046692,520.958191 
	C593.046692,520.958191 593.085327,520.882935 592.988098,521.788635 
	C593.649170,526.519958 594.883606,531.251404 594.881897,535.982483 
	C594.866150,579.341125 594.620178,622.699646 594.566895,666.058350 
	C594.565674,667.045166 596.038025,668.033752 597.376770,669.565369 
	C599.585632,669.434326 601.794556,669.303284 604.637390,669.708435 
	C622.765259,669.800476 640.893188,669.892456 659.698547,669.954956 
	C661.836853,669.418518 663.975159,668.882019 666.736206,668.123230 
	C666.951050,668.073853 667.165894,668.024536 667.988342,667.559631 
	C668.291260,665.798218 668.856995,664.037109 668.858826,662.275330 
	C668.911682,612.062073 668.947266,561.848633 668.812439,511.635681 
	C668.804565,508.717407 667.340393,505.803040 666.300354,502.306244 
	C666.263977,501.887360 666.227600,501.468445 666.663208,500.474823 
	C666.409363,491.414093 662.613037,483.434387 658.791199,475.523651 
	C657.535461,472.924438 655.356201,470.771454 653.588562,468.326935 
	C653.588562,468.326935 653.518921,468.272919 653.797058,467.547424 
	C653.126953,466.760620 652.456848,465.973816 651.975952,465.095123 
	C651.975952,465.095123 651.789001,465.175079 651.916992,464.438934 
	C650.804932,463.114075 649.692810,461.789246 648.575195,460.374878 
	C648.575195,460.374878 648.487000,460.358521 648.717957,459.666290 
	C647.470825,458.445709 646.223694,457.225128 645.002441,455.997833 
	C645.002441,455.997833 644.995361,456.023773 644.963867,455.391541 
	C644.505188,455.084747 644.046509,454.777954 643.557739,454.380005 
	C643.557739,454.380005 643.466309,454.350616 643.549072,453.836426 
M385.979279,326.413025 
	C385.680328,326.235413 385.381378,326.057831 385.019379,325.987762 
	C385.019379,325.987762 385.112915,325.905334 384.909210,325.271179 
	C379.284485,322.132843 373.659760,318.994507 367.785370,315.661316 
	C367.785370,315.661316 367.480011,315.745178 366.862488,315.209930 
	C348.170135,310.637024 328.649139,318.504547 320.824982,333.980743 
	C320.824982,333.980743 320.774994,333.792816 320.244202,334.139069 
	C319.819611,335.085693 319.395020,336.032349 318.975281,336.957428 
	C318.975281,336.957428 318.952087,336.954437 318.362366,337.339661 
	C312.091370,351.352570 312.342163,364.942413 321.184662,378.639526 
	C329.266937,390.370880 340.395142,396.868103 354.648743,397.312164 
	C370.800903,397.815338 383.467712,390.867218 391.775208,377.216675 
	C399.626099,364.316345 400.378693,350.624176 393.077240,336.227936 
	C390.741760,333.123871 388.406250,330.019806 385.998962,326.983582 
	C385.998962,326.983582 386.088196,326.941406 385.979279,326.413025 
M389.748840,670.010925 
	C390.859039,669.368347 391.969208,668.725830 393.638947,667.448975 
	C393.765015,666.136902 394.001129,664.824768 394.001404,663.512695 
	C394.016113,588.271667 394.016602,513.030579 393.972382,437.789581 
	C393.971436,436.208374 393.432129,434.627472 392.513977,432.456055 
	C391.703613,432.307434 390.893402,432.029938 390.082855,432.028900 
	C367.784393,432.000336 345.485870,431.983612 323.187531,432.038574 
	C321.948792,432.041626 320.711609,432.676941 318.779572,433.322662 
	C318.517639,434.905060 318.027527,436.487335 318.026581,438.069885 
	C317.981812,512.990295 317.972229,587.910706 318.018738,662.831116 
	C318.019806,664.535767 318.711151,666.240112 319.503906,668.188293 
	C319.765625,668.393005 319.968628,668.645020 319.604858,669.328552 
	C319.541626,669.482178 319.441956,669.632019 319.425812,669.790466 
	C319.410980,669.936157 319.489441,670.223572 319.521118,670.222839 
	C321.751343,670.166931 323.980927,670.024048 326.210663,670.021606 
	C347.140839,669.999207 368.071045,670.000427 389.748840,670.010925 
z"/>
<path fill="#FCFEFE" opacity="1.000000" stroke="none" 
	d="
M640.615784,451.592346 
	C640.615784,451.592346 640.771301,451.834595 640.979126,452.146271 
	C641.587891,452.780090 641.988831,453.102234 642.389832,453.424377 
	C642.389832,453.424377 642.513428,453.564392 642.658142,453.796082 
	C642.969727,454.247009 643.190857,454.354614 643.466309,454.350616 
	C643.466309,454.350616 643.557739,454.380005 643.646851,454.695374 
	C644.155701,455.348419 644.575562,455.686096 644.995361,456.023773 
	C644.995361,456.023773 645.002441,455.997833 645.082581,456.310913 
	C646.270813,457.868866 647.378906,459.113708 648.487000,460.358521 
	C648.487000,460.358521 648.575195,460.374878 648.643555,460.734436 
	C649.737549,462.454376 650.763306,463.814728 651.789001,465.175079 
	C651.789001,465.175079 651.975952,465.095123 651.902344,465.447601 
	C652.392090,466.624359 652.955505,467.448639 653.518921,468.272888 
	C653.518921,468.272919 653.588562,468.326935 653.639893,468.720886 
	C657.857849,479.759735 662.024597,490.404663 666.191284,501.049561 
	C666.227600,501.468445 666.263977,501.887360 666.343323,503.007629 
	C666.715698,508.016754 667.325867,512.324097 667.331726,516.632263 
	C667.400635,567.079773 667.378723,617.527527 667.380737,667.975159 
	C667.165894,668.024536 666.951050,668.073853 665.984802,668.100830 
	C662.808228,668.149231 660.383118,668.219910 657.636169,668.238281 
	C656.882507,668.220642 656.450684,668.255432 655.564697,668.167969 
	C650.070984,668.127319 645.031250,668.208862 639.526855,668.234497 
	C627.403259,668.214111 615.744385,668.249756 603.654907,668.163330 
	C601.149658,668.067566 599.075195,668.093750 596.750977,667.818970 
	C596.433228,666.359863 596.304810,665.201660 596.305786,664.043518 
	C596.339844,623.283630 596.543213,582.522705 596.279480,541.764832 
	C596.234375,534.797607 594.200500,527.843262 593.085327,520.882935 
	C593.085327,520.882935 593.046692,520.958191 593.083313,520.585938 
	C591.567810,517.348694 590.015625,514.483704 588.463501,511.618774 
	C588.305542,511.711548 588.147583,511.804321 588.131897,511.424622 
	C585.544922,508.254242 582.815796,505.556366 580.086670,502.858459 
	C580.086670,502.858459 580.036255,502.953979 579.953430,502.657959 
	C579.342590,502.099762 578.814514,501.837524 578.286499,501.575287 
	C578.286499,501.575287 578.187927,501.794464 578.093018,501.421753 
	C561.291870,490.679443 535.140076,492.034149 521.922729,503.953857 
	C521.922729,503.953857 521.985779,503.990570 521.699524,503.990234 
	C521.212708,504.292847 521.012146,504.595764 520.811646,504.898682 
	C520.811646,504.898712 520.908752,504.903473 520.559875,504.932281 
	C517.788818,507.947571 515.366638,510.934052 512.944458,513.920532 
	C506.624298,522.995239 504.221649,533.262573 504.197540,544.105896 
	C504.113525,581.921265 504.168365,619.737000 504.170410,657.552551 
	C504.170593,660.854187 504.170441,664.155823 504.170441,667.802246 
	C480.374115,667.802246 456.993500,667.802246 433.326416,667.802246 
	C433.326416,589.469421 433.326416,511.262787 433.326416,432.870667 
	C455.552643,432.870667 477.613831,432.870667 500.054199,432.870667 
	C500.054199,443.797821 500.054199,454.379181 500.054199,465.545410 
	C530.307251,431.643677 566.640442,420.608398 610.442383,433.544006 
	C613.257507,434.702393 615.463074,435.536407 617.668579,436.370422 
	C617.668579,436.370422 617.753296,436.304474 617.944824,436.622864 
	C619.925903,437.781372 621.715332,438.621429 623.504822,439.461517 
	C623.504822,439.461517 623.591187,439.429077 623.766602,439.751617 
	C626.624512,441.717804 629.307007,443.361481 631.989441,445.005127 
	C631.989441,445.005127 632.212891,445.242645 632.517578,445.573853 
	C634.052979,446.727509 635.283752,447.549927 636.514526,448.372375 
	C636.514526,448.372375 636.596008,448.359009 636.754517,448.679565 
	C638.147339,449.864197 639.381531,450.728271 640.615784,451.592346 
z"/>
<path fill="#FCFEFD" opacity="1.000000" stroke="none" 
	d="
M393.131989,336.939301 
	C400.378693,350.624176 399.626099,364.316345 391.775208,377.216675 
	C383.467712,390.867218 370.800903,397.815338 354.648743,397.312164 
	C340.395142,396.868103 329.266937,390.370880 321.109497,377.927856 
	C320.069672,374.598846 319.007416,372.012665 318.160156,369.357880 
	C316.239471,363.339752 313.756287,357.603851 316.604858,350.858551 
	C318.384277,346.644897 318.235565,341.616974 318.952087,336.954437 
	C318.952087,336.954437 318.975281,336.957428 319.334900,336.923279 
	C320.054688,335.856995 320.414825,334.824890 320.774963,333.792816 
	C320.774994,333.792816 320.824982,333.980743 321.175690,333.941223 
	C322.707489,333.206146 324.122498,332.733704 325.032593,331.779602 
	C332.190125,324.275970 338.650330,315.569702 351.049896,317.847198 
	C351.462219,317.922913 352.200928,317.700043 352.371674,317.388519 
	C354.582367,313.354095 357.998444,315.277557 361.101624,315.514709 
	C363.221252,315.676666 365.353424,315.674164 367.480011,315.745178 
	C367.480011,315.745178 367.785370,315.661316 368.039124,316.088501 
	C373.922241,319.604950 378.325623,324.890350 385.112915,325.905334 
	C385.112915,325.905334 385.019379,325.987762 385.116241,326.192261 
	C385.504822,326.578278 385.796509,326.759827 386.088196,326.941406 
	C386.088196,326.941406 385.998962,326.983582 386.006531,327.326752 
	C388.386719,330.759705 390.759369,333.849518 393.131989,336.939301 
z"/>
<path fill="#1356A4" opacity="1.000000" stroke="none" 
	d="
M319.080566,667.944580 
	C318.711151,666.240112 318.019806,664.535767 318.018738,662.831116 
	C317.972229,587.910706 317.981812,512.990295 318.026581,438.069885 
	C318.027527,436.487335 318.517639,434.905060 319.245270,433.256897 
	C319.710968,433.191132 319.958191,433.032532 319.845520,433.487061 
	C319.727173,511.249115 319.721527,588.556641 319.508057,666.061462 
	C319.226990,666.820679 319.153778,667.382629 319.080566,667.944580 
z"/>
<path fill="#4C80B1" opacity="1.000000" stroke="none" 
	d="
M667.684570,667.767395 
	C667.378723,617.527527 667.400635,567.079773 667.331726,516.632263 
	C667.325867,512.324097 666.715698,508.016754 666.470093,503.297974 
	C667.340393,505.803040 668.804565,508.717407 668.812439,511.635681 
	C668.947266,561.848633 668.911682,612.062073 668.858826,662.275330 
	C668.856995,664.037109 668.291260,665.798218 667.684570,667.767395 
z"/>
<path fill="#2567A5" opacity="1.000000" stroke="none" 
	d="
M593.036743,521.335815 
	C594.200500,527.843262 596.234375,534.797607 596.279480,541.764832 
	C596.543213,582.522705 596.339844,623.283630 596.305786,664.043518 
	C596.304810,665.201660 596.433228,666.359863 596.710449,668.045166 
	C596.919556,668.572205 596.823059,669.021545 596.823059,669.021545 
	C596.038025,668.033752 594.565674,667.045166 594.566895,666.058350 
	C594.620178,622.699646 594.866150,579.341125 594.881897,535.982483 
	C594.883606,531.251404 593.649170,526.519958 593.036743,521.335815 
z"/>
<path fill="#125AA2" opacity="1.000000" stroke="none" 
	d="
M393.143982,433.046448 
	C393.432129,434.627472 393.971436,436.208374 393.972382,437.789581 
	C394.016602,513.030579 394.016113,588.271667 394.001404,663.512695 
	C394.001129,664.824768 393.765015,666.136902 393.343384,667.750122 
	C393.047821,668.051270 393.020599,668.017761 392.987457,667.686890 
	C392.838928,667.166687 392.723572,666.977478 392.590210,666.333740 
	C392.576477,592.308533 392.582916,518.737854 392.578949,445.167145 
	C392.578735,441.174866 392.491608,437.182587 392.629333,433.201172 
	C392.813751,433.212036 393.143982,433.046448 393.143982,433.046448 
z"/>
<path fill="#1257A5" opacity="1.000000" stroke="none" 
	d="
M389.001221,669.994873 
	C368.071045,670.000427 347.140839,669.999207 326.210663,670.021606 
	C323.980927,670.024048 321.751343,670.166931 319.521118,670.222839 
	C319.489441,670.223572 319.410980,669.936157 319.425812,669.790466 
	C319.441956,669.632019 319.541626,669.482178 320.175537,669.115601 
	C321.532074,668.658081 322.317902,668.413513 323.565186,668.156860 
	C344.324890,668.158020 364.623077,668.171387 385.198029,668.399414 
	C386.645538,668.729492 387.816284,668.844849 388.991119,669.218872 
	C388.997192,669.650024 388.999207,669.822510 389.001221,669.994873 
z"/>
<path fill="#2567A5" opacity="1.000000" stroke="none" 
	d="
M522.309570,503.981445 
	C535.140076,492.034149 561.291870,490.679443 578.172974,501.332031 
	C576.129211,501.174866 573.684021,501.191284 571.728638,500.220734 
	C558.716736,493.762024 545.858154,494.377197 532.899231,500.350067 
	C529.630493,501.856598 526.104248,502.804474 522.309570,503.981445 
z"/>
<path fill="#D6F2F9" opacity="1.000000" stroke="none" 
	d="
M367.171265,315.477539 
	C365.353424,315.674164 363.221252,315.676666 361.101624,315.514709 
	C357.998444,315.277557 354.582367,313.354095 352.371674,317.388519 
	C352.200928,317.700043 351.462219,317.922913 351.049896,317.847198 
	C338.650330,315.569702 332.190125,324.275970 325.032593,331.779602 
	C324.122498,332.733704 322.707489,333.206146 321.141968,333.846649 
	C328.649139,318.504547 348.170135,310.637024 367.171265,315.477539 
z"/>
<path fill="#1057A5" opacity="1.000000" stroke="none" 
	d="
M656.018799,668.290222 
	C656.450684,668.255432 656.882507,668.220642 657.755981,668.460327 
	C658.472107,669.151367 658.746582,669.567932 659.021057,669.984497 
	C640.893188,669.892456 622.765259,669.800476 604.362183,669.219849 
	C604.087036,668.731323 604.085571,668.285400 604.085571,668.285400 
	C615.744385,668.249756 627.403259,668.214111 639.858398,668.476929 
	C645.776062,668.613647 650.897461,668.451904 656.018799,668.290222 
z"/>
<path fill="#CAE8F9" opacity="1.000000" stroke="none" 
	d="
M318.657227,337.147034 
	C318.235565,341.616974 318.384277,346.644897 316.604858,350.858551 
	C313.756287,357.603851 316.239471,363.339752 318.160156,369.357880 
	C319.007416,372.012665 320.069672,374.598846 321.016815,377.601501 
	C312.342163,364.942413 312.091370,351.352570 318.657227,337.147034 
z"/>
<path fill="#78A6D0" opacity="1.000000" stroke="none" 
	d="
M319.592346,433.104553 
	C320.711609,432.676941 321.948792,432.041626 323.187531,432.038574 
	C345.485870,431.983612 367.784393,432.000336 390.082855,432.028900 
	C390.893402,432.029938 391.703613,432.307434 392.828979,432.751251 
	C393.143982,433.046448 392.813751,433.212036 392.199280,433.170349 
	C367.709259,433.096619 343.833740,433.064575 319.958191,433.032532 
	C319.958191,433.032532 319.710968,433.191132 319.592346,433.104553 
z"/>
<path fill="#4C80B1" opacity="1.000000" stroke="none" 
	d="
M666.427246,500.762207 
	C662.024597,490.404663 657.857849,479.759735 653.645203,468.764648 
	C655.356201,470.771454 657.535461,472.924438 658.791199,475.523651 
	C662.613037,483.434387 666.409363,491.414093 666.427246,500.762207 
z"/>
<path fill="#D6F2F9" opacity="1.000000" stroke="none" 
	d="
M385.011047,325.588257 
	C378.325623,324.890350 373.922241,319.604950 368.163971,316.185913 
	C373.659760,318.994507 379.284485,322.132843 385.011047,325.588257 
z"/>
<path fill="#D6F2F9" opacity="1.000000" stroke="none" 
	d="
M393.104614,336.583618 
	C390.759369,333.849518 388.386719,330.759705 386.042419,327.292847 
	C388.406250,330.019806 390.741760,333.123871 393.104614,336.583618 
z"/>
<path fill="#2567A5" opacity="1.000000" stroke="none" 
	d="
M580.070190,503.214966 
	C582.815796,505.556366 585.544922,508.254242 588.364014,511.276764 
	C585.653809,508.924744 582.853760,506.248108 580.070190,503.214966 
z"/>
<path fill="#2567A5" opacity="1.000000" stroke="none" 
	d="
M513.267822,513.815735 
	C515.366638,510.934052 517.788818,507.947571 520.542114,504.887024 
	C518.445862,507.778931 516.018555,510.744934 513.267822,513.815735 
z"/>
<path fill="#2567A5" opacity="1.000000" stroke="none" 
	d="
M588.323303,512.007568 
	C590.015625,514.483704 591.567810,517.348694 593.125610,520.586243 
	C589.570251,519.209473 588.293884,516.139709 588.323303,512.007568 
z"/>
<path fill="#4C80B1" opacity="1.000000" stroke="none" 
	d="
M631.958008,444.655884 
	C629.307007,443.361481 626.624512,441.717804 623.770569,439.797546 
	C626.374878,441.116180 629.150696,442.711426 631.958008,444.655884 
z"/>
<path fill="#4C80B1" opacity="1.000000" stroke="none" 
	d="
M659.359802,669.969727 
	C658.746582,669.567932 658.472107,669.151367 658.077759,668.512695 
	C660.383118,668.219910 662.808228,668.149231 665.673462,668.212036 
	C663.975159,668.882019 661.836853,669.418518 659.359802,669.969727 
z"/>
<path fill="#4C80B1" opacity="1.000000" stroke="none" 
	d="
M603.654907,668.163391 
	C604.085571,668.285400 604.087036,668.731323 604.045227,668.951782 
	C601.794556,669.303284 599.585632,669.434326 597.099915,669.293457 
	C596.823059,669.021545 596.919556,668.572205 596.960083,668.346069 
	C599.075195,668.093750 601.149658,668.067566 603.654907,668.163391 
z"/>
<path fill="#4C80B1" opacity="1.000000" stroke="none" 
	d="
M617.593506,436.021149 
	C615.463074,435.536407 613.257507,434.702393 610.813599,433.606262 
	C612.889648,434.120026 615.203979,434.895935 617.593506,436.021149 
z"/>
<path fill="#4C80B1" opacity="1.000000" stroke="none" 
	d="
M648.602478,460.012390 
	C647.378906,459.113708 646.270813,457.868866 645.069702,456.314270 
	C646.223694,457.225128 647.470825,458.445709 648.602478,460.012390 
z"/>
<path fill="#4C80B1" opacity="1.000000" stroke="none" 
	d="
M651.853027,464.807007 
	C650.763306,463.814728 649.737549,462.454376 648.646240,460.779236 
	C649.692810,461.789246 650.804932,463.114075 651.853027,464.807007 
z"/>
<path fill="#125AA2" opacity="1.000000" stroke="none" 
	d="
M389.375031,670.002930 
	C388.999207,669.822510 388.997192,669.650024 389.034607,669.027283 
	C389.074036,668.576965 389.119873,668.186279 389.475861,668.155396 
	C390.543610,668.070984 391.255371,668.017456 392.228088,668.024780 
	C392.666199,668.063110 392.843384,668.040466 393.020599,668.017761 
	C393.020599,668.017761 393.047821,668.051270 393.063599,668.067261 
	C391.969208,668.725830 390.859039,669.368347 389.375031,670.002930 
z"/>
<path fill="#4C80B1" opacity="1.000000" stroke="none" 
	d="
M636.617554,448.005432 
	C635.283752,447.549927 634.052979,446.727509 632.674561,445.617981 
	C633.924805,446.100067 635.322693,446.869293 636.617554,448.005432 
z"/>
<path fill="#4C80B1" opacity="1.000000" stroke="none" 
	d="
M623.497986,439.114075 
	C621.715332,438.621429 619.925903,437.781372 617.940796,436.676392 
	C619.660461,437.196594 621.575806,437.981628 623.497986,439.114075 
z"/>
<path fill="#4C80B1" opacity="1.000000" stroke="none" 
	d="
M640.686096,451.218262 
	C639.381531,450.728271 638.147339,449.864197 636.762939,448.719971 
	C637.994019,449.241302 639.375183,450.042755 640.686096,451.218262 
z"/>
<path fill="#78A6D0" opacity="1.000000" stroke="none" 
	d="
M323.103699,668.168945 
	C322.317902,668.413513 321.532074,668.658081 320.429565,668.923462 
	C319.968628,668.645020 319.765625,668.393005 319.292236,668.066406 
	C319.153778,667.382629 319.226990,666.820679 319.701691,666.370117 
	C321.103363,667.044006 322.103546,667.606445 323.103699,668.168945 
z"/>
<path fill="#4C80B1" opacity="1.000000" stroke="none" 
	d="
M653.657959,467.910156 
	C652.955505,467.448639 652.392090,466.624359 651.807678,465.493530 
	C652.456848,465.973816 653.126953,466.760620 653.657959,467.910156 
z"/>
<path fill="#D6F2F9" opacity="1.000000" stroke="none" 
	d="
M320.509583,333.965942 
	C320.414825,334.824890 320.054688,335.856995 319.332520,336.934021 
	C319.395020,336.032349 319.819611,335.085693 320.509583,333.965942 
z"/>
<path fill="#4C80B1" opacity="1.000000" stroke="none" 
	d="
M642.458435,453.122559 
	C641.988831,453.102234 641.587891,452.780090 641.109985,452.206116 
	C641.531128,452.243073 642.029053,452.531891 642.458435,453.122559 
z"/>
<path fill="#2567A5" opacity="1.000000" stroke="none" 
	d="
M578.321167,501.912170 
	C578.814514,501.837524 579.342590,502.099762 580.001831,502.633972 
	C579.540588,502.687012 578.948181,502.468018 578.321167,501.912170 
z"/>
<path fill="#4C80B1" opacity="1.000000" stroke="none" 
	d="
M644.979614,455.707642 
	C644.575562,455.686096 644.155701,455.348419 643.661865,454.740967 
	C644.046509,454.777954 644.505188,455.084747 644.979614,455.707642 
z"/>
<path fill="#2567A5" opacity="1.000000" stroke="none" 
	d="
M521.083618,504.845276 
	C521.012146,504.595764 521.212708,504.292847 521.695190,503.954041 
	C521.769897,504.209381 521.562744,504.500641 521.083618,504.845276 
z"/>
<path fill="#4C80B1" opacity="1.000000" stroke="none" 
	d="
M643.507690,454.093506 
	C643.190857,454.354614 642.969727,454.247009 642.733521,453.851196 
	C642.959106,453.728546 643.254089,453.782471 643.507690,454.093506 
z"/>
<path fill="#D6F2F9" opacity="1.000000" stroke="none" 
	d="
M386.033752,326.677216 
	C385.796509,326.759827 385.504822,326.578278 385.147766,326.138489 
	C385.381378,326.057831 385.680328,326.235413 386.033752,326.677216 
z"/>
<path fill="#4C80B1" opacity="1.000000" stroke="none" 
	d="
M655.564697,668.167969 
	C650.897461,668.451904 645.776062,668.613647 640.323120,668.532959 
	C645.031250,668.208862 650.070984,668.127319 655.564697,668.167969 
z"/>
<path fill="#FEFFFE" opacity="1.000000" stroke="none" 
	d="
M323.565186,668.156860 
	C322.103546,667.606445 321.103363,667.044006 319.909546,666.172852 
	C319.721527,588.556641 319.727173,511.249115 319.845520,433.487061 
	C343.833740,433.064575 367.709259,433.096619 392.014893,433.159485 
	C392.491608,437.182587 392.578735,441.174866 392.578949,445.167145 
	C392.582916,518.737854 392.576477,592.308533 392.413147,666.482178 
	C392.106903,667.361267 392.011292,667.654175 391.967133,667.963867 
	C391.255371,668.017456 390.543610,668.070984 389.066833,668.027466 
	C387.174988,668.015198 386.048157,668.099976 384.921295,668.184753 
	C364.623077,668.171387 344.324890,668.158020 323.565186,668.156860 
z"/>
<path fill="#78A6D0" opacity="1.000000" stroke="none" 
	d="
M392.228088,668.024780 
	C392.011292,667.654175 392.106903,667.361267 392.431091,666.936707 
	C392.723572,666.977478 392.838928,667.166687 392.987457,667.686890 
	C392.843384,668.040466 392.666199,668.063110 392.228088,668.024780 
z"/>
<path fill="#78A6D0" opacity="1.000000" stroke="none" 
	d="
M385.198029,668.399414 
	C386.048157,668.099976 387.174988,668.015198 388.710876,668.058350 
	C389.119873,668.186279 389.074036,668.576965 389.030548,668.768555 
	C387.816284,668.844849 386.645538,668.729492 385.198029,668.399414 
z"/>
</svg>